<svg width="554" height="493" viewBox="0 0 554 493" fill="none" xmlns="http://www.w3.org/2000/svg">
	<path d="M182.5 410.277C182.5 411.777 174.5 466.777 269.5 459.777C242.5 494.277 230.5 487.777 200 492.777C164 495.777 97 461.777 97 394.277C105.5 312.277 146.5 272.777 305.5 289.777C345 286.777 375.5 284.277 382 229.277C386.5 174.277 296.5 102.277 162 104.777C102.721 108.667 69.5 117.777 21 164.277C74.5 204.777 167 217.277 251 183.277C273 208.777 263.5 199.777 305.5 247.277C265 277.277 199 262.277 174.5 218.777C135.5 221.277 61 229.277 0 164.277C52.5 90.7769 118.921 63.9841 210 62.777C237.5 60.277 466.5 72.2769 471 239.777C455 374.277 347 377.277 240.5 363.277C231.5 361.277 180.5 366.277 182.5 410.277Z" fill="#58944A"/>
	<path d="M505 240.777C499.5 297.777 476.5 353.277 394 374.777C539.5 387.277 556.5 252.277 553.5 231.777C548.5 118.777 440 78.2769 431.5 72.7769C454.5 49.7769 454 48.277 470.5 31.277C412 9.27696 354 5.27696 302 0.276961C265 -1.72294 225 6.27696 185 51.777C354 39.7769 505 94.7769 505 240.777Z" fill="#125C37"/>
	<path d="M321.5 388.277C304 388.277 288.5 391.777 277 407.277C302 409.277 321.5 409.9 345 430.277C368.5 450.655 369 477.777 373.5 483.277C380 488.777 427.5 493.277 430 491.277C440 454.777 378.5 387.277 321.5 388.277Z" fill="#0F5E38"/>
	<path d="M109.5 132.777C98.4543 132.777 89.5 141.731 89.5 152.777C89.5 163.823 98.4543 172.777 109.5 172.777C120.546 172.777 129.5 163.823 129.5 152.777C129.5 141.731 120.546 132.777 109.5 132.777Z" fill="#16313A"/>
</svg>
